# xmcd
# 
# Track frame offsets:
#     150
#     35197
#     53175
#     69880
#     84122
#     100122
#     116780
#     139450
#     155734
#     161067
#     167085
#     185987
# 
# Disc length: 2659
# 
# Revision: 2
# Processed by: cddbd v1.5.2PL0 Copyright (c) Steve Scherf et al.
# Submitted via: BonkEnc v1.0.6
# 
DISCID=ab0a610c
DTITLE=Luiz Gonzaga e Gonzaguinha - Ao Vivo - CD 2
DYEAR=0
DGENRE=
TTITLE0=Juazeiro-Meu Pé de Serra-Est. do Canindé-Riacho do Navio
TTITLE1=Da Vida
TTITLE2=Estrada
TTITLE3=Diga Lá, Meu Coração
TTITLE4=Grito de Alerta
TTITLE5=Da Maior Liberdade
TTITLE6=Com a Perna no Mundo
TTITLE7=Não Dá Mais Pra Segurar(Esplode Coração)
TTITLE8=Respeita Januário
TTITLE9=Estrela de Ouro
TTITLE10=Hora do Adeus
TTITLE11=A Vida do Viajante
EXTD=
EXTT0=
EXTT1=
EXTT2=
EXTT3=
EXTT4=
EXTT5=
EXTT6=
EXTT7=
EXTT8=
EXTT9=
EXTT10=
EXTT11=
PLAYORDER=
